<svg xmlns="http://www.w3.org/2000/svg" viewBox="0 0 491 491"><defs><style>.a{fill:#fff;}.a,.b,.c,.d,.e,.f{stroke:#000;stroke-miterlimit:10;}.b{fill:#eb8ebb;}.d{fill:#963;}.e{fill:#336f00;}.f{fill:none;}</style></defs><circle class="a" cx="245.5" cy="245.5" r="240"/><path d="M320.191,465.376a6.418,6.418,0,0,1-3.728,1.975,11.293,11.293,0,0,1-5.134-.252q-6.141-1.645-7.557-7.119-1.075-4.139,1.25-12.827.387-1.445.708-2.419l-11.688-3.129-6.453,3.034,3.8-14.178.969-.56-3.568,13.329,5.158-2.5,12.764,3.417q-.8,2.424-1.543,5.2-1.956,7.3-.327,11.528t6.949,5.651a10.27,10.27,0,0,0,4.017.348A15.154,15.154,0,0,0,320.191,465.376Zm10.293-26.329-3.4,12.707q-2.168,8.092-5.319,10.92a9.094,9.094,0,0,1-8.95,2.275A8.849,8.849,0,0,1,308,461.87a9.586,9.586,0,0,1-1.977-5.534q-.187-3.264,1.562-9.8l.933-3.481-13.7-3.666-4.037,2.619,3.522-13.16,2.259,4.821L307.91,436.7c.079-.221.132-.379.157-.474a9.4,9.4,0,0,0,.168-4.14l.578-.118a7.3,7.3,0,0,1,.166,3.684l-.272,1.019-.033.234,1.387.371a8.807,8.807,0,0,0,.32-.855,7.713,7.713,0,0,0-.176-5.233l.5-.17a6.064,6.064,0,0,1,1.685,6.4l-.121.453,13.867,3.712Zm-5.384,8.446-14.179-3.8-.1.368-.225.728c-.02.076-.043.2-.07.376l12.622,3.378-.833,3.114a14.85,14.85,0,0,1-2,4.937,5.608,5.608,0,0,1-3.325,1.825,5.772,5.772,0,0,0,2.724-2.076,13.781,13.781,0,0,0,1.767-4.274l.78-2.915-11.943-3.2q-1.5,5.6-.56,8.661a5.84,5.84,0,0,0,4.451,4q3.933,1.051,6.341-.805t3.794-7.037Q324.7,449.448,325.1,447.493Z" transform="translate(-254.5 -254.5)"/><path d="M300.324,490.633a35.081,35.081,0,0,0-12.281,5.59,30.964,30.964,0,0,0-7.034,6.883,46.29,46.29,0,0,0-4.448-12.984l-.155-.277.513-.547a41.763,41.763,0,0,1,4.443,12.308q6.267-7.971,18.971-11.825l.51-.136q2.686,9.2,9.638,9.748a11.387,11.387,0,0,0,6.432-1.818,8.866,8.866,0,0,1-7.066,2.414Q303.129,499.463,300.324,490.633Zm18.562-21.614a29.353,29.353,0,0,1,2.834,15.209,18.048,18.048,0,0,1-3.487,10q-3,3.8-7.149,3.48a8.256,8.256,0,0,1-5.8-3.1,15.4,15.4,0,0,1-3.22-7.482,51.97,51.97,0,0,0-11.235,4.63,35.138,35.138,0,0,0-8.605,6.305l-.112-.45a38.631,38.631,0,0,0-3.537-8.858l-.258-.461.946-.073a84.294,84.294,0,0,0,19.57-3.726l.3-.094a21.4,21.4,0,0,1-1.066-5.52l-.011-.236-10.924-.856-5.893,4.71,1.183-15.1.825-.406-1.089,13.9,4.83-3.883,11.77.923.04.62a19.456,19.456,0,0,0,.877,5.681c.242-.1.394-.155.454-.17l.87-.225c.059-.015.181-.055.362-.119a51.752,51.752,0,0,1-.6-6.924l-.033-.325L287.7,475.45l-3.737,3.057,1.012-12.91,3.178,4.07,9.813.769-.011-.236a29.884,29.884,0,0,0-.606-3.134l-.069-.24.6-.217a17.194,17.194,0,0,1,.514,2.068l.259,1.578.04.238,1.518.119a15.727,15.727,0,0,0-.423-4.353l-.091-.33a13.95,13.95,0,0,1,1.853.733q.111.068,1.282.511l.256.109q-.191,1.307-.248,2.037a11.463,11.463,0,0,0-.027,1.468l14.37,1.126a17.654,17.654,0,0,0,1.59-2.667Zm.069,8.88-15.744-1.234a8.518,8.518,0,0,0,.021,1.618l14.37,1.126a14.876,14.876,0,0,1,.136,3.89q-.447,5.7-4.345,7.447a15.68,15.68,0,0,0,2.707-3.608,10.493,10.493,0,0,0,.963-3.863,12.419,12.419,0,0,0-.1-3.152l-13.786-1.081.034.326q.6,5.837,2.645,8.8a7.25,7.25,0,0,0,5.667,3.251,6.731,6.731,0,0,0,5.556-2.092,9.525,9.525,0,0,0,2.614-6.172A10.766,10.766,0,0,0,318.955,477.9Z" transform="translate(-254.5 -254.5)"/><path d="M286.475,542.444l-2.784-1.235-3.4-31.811.737-.55,3.408,31.9,1.941.8a22.656,22.656,0,0,1,7.642-6.8l-.25.97a23.947,23.947,0,0,0-6.879,6.215Zm36.619-8.862-.6-.407a29.247,29.247,0,0,0-8.865-3.826c.426-.243.74-.423.944-.543q3.324-1.977,4.148-3.92t.316-6.693q-.234-2.184-.706-5.227l-13.4,1.431.2,1.865L316.983,515q.44,2.192.655,4.2a14.146,14.146,0,0,1-.2,5.532,7.354,7.354,0,0,1-2.726,3.444q.247-.439.375-.63a14.231,14.231,0,0,0,1.85-3.645,15.783,15.783,0,0,0-.093-4.173q-.1-.933-.471-3.309l-.1-.608-11.069,1.182.572,5.36,5.558,3.207L298.779,526.9l4.464-4.277-.85-7.953-16.342,1.746.2,1.864,14.973-1.6L301.9,523l-.676.839-.679-6.351-14.215,1.519a29.6,29.6,0,0,0,1.747,8.357,7.093,7.093,0,0,0,3.741,3.578l2.816,1.261q.185.069.679.281a19.043,19.043,0,0,0-4.927,2.427,23.275,23.275,0,0,0-4.09,4.193l-3.488-32.656,3.852,4.068,12.992-1.389a10.8,10.8,0,0,0-1.987-4.266l.568-.473a10.432,10.432,0,0,1,2.177,4.658l1.369-.146q0-.5-.016-.706A8,8,0,0,0,299,503.01a5.865,5.865,0,0,1,5.315,5.619L316.75,507.3l3.023-4.8Zm-12.506-5.912-12.876,1.376.3-.77,12.876-1.375ZM321.2,535.2l-.284-.176a34.563,34.563,0,0,0-8.518-3.892l.558-.561a34.725,34.725,0,0,1,8.812,4.156Z" transform="translate(-254.5 -254.5)"/><path d="M297.933,581.082l-2.964-.7-9.232-30.631.622-.677,9.257,30.715,2.055.421a22.654,22.654,0,0,1,6.25-8.1l-.066,1a23.931,23.931,0,0,0-5.608,7.382Zm34.344-15.492-.668-.288a29.275,29.275,0,0,0-9.421-2.117c.374-.318.65-.553.828-.709q2.9-2.558,3.35-4.621t-.929-6.634q-.635-2.106-1.662-5.007l-12.9,3.889.541,1.794,11.417-3.44q.837,2.071,1.421,4.008a14.144,14.144,0,0,1,.824,5.473,7.349,7.349,0,0,1-2.041,3.89c.108-.318.192-.548.252-.688a14.209,14.209,0,0,0,1.143-3.924,15.8,15.8,0,0,0-.864-4.085q-.272-.9-1.076-3.164l-.206-.58L311.624,552.6l1.556,5.161,6.055,2.122-12.089,3.644,3.593-5.03-2.308-7.658L292.7,555.581l.541,1.795,14.418-4.346,1.835,6.087-.51.949-1.843-6.115-13.689,4.126a29.657,29.657,0,0,0,3.265,7.89,7.105,7.105,0,0,0,4.34,2.823l3,.717c.129.022.369.073.719.15a19.045,19.045,0,0,0-4.392,3.3,23.3,23.3,0,0,0-3.242,4.878l-9.477-31.444,4.539,3.283,12.51-3.771a10.775,10.775,0,0,0-2.743-3.824l.471-.57a10.424,10.424,0,0,1,3,4.175l1.318-.4a6.649,6.649,0,0,0-.147-.69,7.99,7.99,0,0,0-3.676-4.583,5.864,5.864,0,0,1,6.264,4.538l11.977-3.611,2.081-5.278ZM318.893,562.1l-12.4,3.737.153-.812,12.4-3.737Zm11.826,5.431-.311-.12a34.61,34.61,0,0,0-9.092-2.247l.445-.654a34.758,34.758,0,0,1,9.429,2.451Z" transform="translate(-254.5 -254.5)"/><path d="M339.212,593.915a9.467,9.467,0,0,0-1.1-5.361,11.767,11.767,0,0,0-.719-1.212l-26.156,13.519-2.781,6.656-6.821-13.327.4-.96,6.394,12.493,2.2-5.537,27.175-13.91.747,1.4a12.5,12.5,0,0,1,1.431,3.793A3.364,3.364,0,0,1,339.212,593.915Zm8.435,2.4q-.564-.008-.76-.006l-4.037-.171a25.973,25.973,0,0,0-5.04.44l-.158.015.05-.355.3-.252a8.636,8.636,0,0,0,3.02-4.26,7.439,7.439,0,0,0-1.035-4.851q-.6-1.174-1.306-2.294l-.16-.313-28.27,14.469-1.268,4.533-6.1-11.918,4.92,2.089,25.949-13.282-.921-1.865q-1.376-2.685-3.012-3.279t-4.4.558l-.347-.677q3.2-1.276,5.059-.6t3.382,3.649l.774,1.578.147.288,1.278-.655a24.453,24.453,0,0,0-1.138-2.609q-1.722-3.365-3.852-4.15t-5.47.726l-.16-.313A54.416,54.416,0,0,0,331.4,565.2l.181-.29Zm-.8,2.484a33.587,33.587,0,0,0-9.551.116l-.314.029.2-.827.275-.042q6.385-.832,9.419-.115l.224.05Z" transform="translate(-254.5 -254.5)"/><path d="M355.01,608.813l-4.134-.774L326.322,625.02l-1.73,7.18-8.665-12.53.234-1.052,8.1,11.711,1.356-5.817,25.011-17.3,4.582.857Zm-7.276-13.455,7.9,11.421-5.51-.962-25.084,17.347-.455,4.8-7.765-11.23,5.088,1.434,25.132-17.381Z" transform="translate(-254.5 -254.5)"/><path d="M362.983,669.013l-2.777.988-22.058-21.188.019-1.078,22.354,21.472,1.892-.742a33.408,33.408,0,0,1,2.39-9.932l.139-.313.433.9-.2.5a43.14,43.14,0,0,0-2.16,9.015ZM364.73,618.9l10.1,9.7-5.759.033-21.7,22.587.169.162.7.794.19.182,21.553-22.438,4.494-.111-.15.749-4.059.123-21.31,22.184q.87,1,1.736,1.83,3.36,3.228,6.512,3.392t7.033-2.69q-3.555,7.675-3.493,11.8l-22.058-21.187,5.209.413,21.168-22.037Z" transform="translate(-254.5 -254.5)"/><path d="M397.95,649.838l-4.163.594-17.8,23.965.667,7.357-12.229-9.084-.117-1.071,11.431,8.489-.585-5.944,18.133-24.414,4.614-.659Zm-11.211-10.406,11.148,8.28-5.527.857-18.185,24.484,1.111,4.693-10.959-8.14,5.277-.277,18.221-24.53Z" transform="translate(-254.5 -254.5)"/><path d="M427.447,665.028c-.315.206-.526.345-.635.419l-3.448,2.106a25.96,25.96,0,0,0-3.941,3.173l-.123.1-.156-.321.108-.376a8.633,8.633,0,0,0,.135-5.22,7.439,7.439,0,0,0-3.561-3.453q-1.152-.641-2.362-1.179l-.307-.171-15.423,27.762,1.471,4.471-11.7-6.5,5.25-1,14.157-25.482-1.8-1.036q-2.638-1.465-4.328-1.047t-3.347,2.917l-.665-.371q1.945-2.838,3.868-3.313t4.842,1.148l1.522.879.282.158.7-1.256a24.39,24.39,0,0,0-2.4-1.533q-3.3-1.836-5.51-1.3t-4.139,3.649l-.307-.171a54.346,54.346,0,0,0,1-9.831l-.011-.342Zm-8.34,2.707a9.456,9.456,0,0,0-3.9-3.841,11.71,11.71,0,0,0-1.271-.607l-14.2,25.795,1.4,7.077-13.087-7.27-.2-1.019,12.268,6.816-1.255-5.826,14.825-26.685,1.4.742a12.506,12.506,0,0,1,3.3,2.354A3.37,3.37,0,0,1,419.107,667.735Zm9.057-.2a33.6,33.6,0,0,0-7.868,5.416l-.244.2-.294-.8.205-.189q4.84-4.248,7.76-5.341l.214-.082Z" transform="translate(-254.5 -254.5)"/><path d="M456.816,675.025c-.274.256-.459.43-.553.522l-3.033,2.669a26.082,26.082,0,0,0-3.334,3.8l-.1.121-.21-.29.042-.389a8.637,8.637,0,0,0-.769-5.165,7.441,7.441,0,0,0-4.1-2.786q-1.245-.432-2.529-.753l-.333-.115-10.4,30.007,2.221,4.15-12.651-4.384,5-1.9,9.543-27.543-1.955-.709q-2.851-.988-4.444-.285t-2.792,3.452l-.72-.249q1.427-3.134,3.238-3.933t4.967.295l1.651.6.305.106.47-1.357a24.51,24.51,0,0,0-2.628-1.1q-3.57-1.239-5.652-.33t-3.446,4.308l-.333-.115a54.315,54.315,0,0,0-.708-9.856l-.07-.335Zm-7.748,4.106a9.458,9.458,0,0,0-4.5-3.11,11.526,11.526,0,0,0-1.357-.378L433.679,703.5l2.6,6.729-14.145-4.9-.378-.968,13.26,4.594-2.242-5.52,9.994-28.845,1.5.49a12.478,12.478,0,0,1,3.657,1.748A3.36,3.36,0,0,1,449.068,679.131Zm8.888-1.758a33.627,33.627,0,0,0-6.815,6.692l-.206.239-.427-.737.169-.22q4.033-5.02,6.721-6.6l.2-.118Z" transform="translate(-254.5 -254.5)"/><path d="M455.349,674.536l13.815,2.29-4.732,3.284-5.122,30.9.231.038,1.026.26.26.043,5.089-30.695,3.644-2.632.3.7-3.278,2.4-5.032,30.348q1.283.33,2.467.527,4.6.762,7.289-.886t4.278-6.194q1.408,8.341,3.792,11.705l-30.174-5,4.529-2.6,5-30.146Zm26.9,42.322-1.732,2.386-30.174-5-.593-.9,30.579,5.07,1.14-1.682a33.4,33.4,0,0,1-3.645-9.542l-.063-.338.868.5.121.524a43.067,43.067,0,0,0,3.316,8.657Z" transform="translate(-254.5 -254.5)"/><path d="M515.262,679.222l-.459.564a29.253,29.253,0,0,0-4.61,8.485c-.2-.447-.355-.776-.455-.99q-1.67-3.489-3.531-4.484t-6.636-.918q-2.2.035-5.271.232l.219,13.475,1.875-.03-.194-11.923q2.223-.24,4.244-.274a14.154,14.154,0,0,1,5.492.7,7.346,7.346,0,0,1,3.183,3.024c-.277-.19-.474-.333-.594-.43a14.208,14.208,0,0,0-3.463-2.171,15.835,15.835,0,0,0-4.165-.284q-.937.016-3.337.172l-.615.039.181,11.132,5.39-.088,3.695-5.246.2,12.625-3.859-4.83-8,.129.266,16.433,1.875-.03-.244-15.057,6.357-.1.774.749-6.386.1.232,14.295a29.578,29.578,0,0,0,8.48-.987,7.1,7.1,0,0,0,3.9-3.4l1.51-2.691c.057-.118.17-.335.342-.65a18.973,18.973,0,0,0,1.973,5.125,23.16,23.16,0,0,0,3.808,4.45l-32.838.532,4.4-3.469-.212-13.066a10.8,10.8,0,0,0-4.427,1.6l-.42-.608a10.44,10.44,0,0,1,4.835-1.749l-.022-1.376a6.747,6.747,0,0,0-.7-.048,8,8,0,0,0-5.413,2.286,5.863,5.863,0,0,1,6.076-4.787l-.2-12.508-4.51-3.443Zm5.527,37.269-1.48,2.661-31.989.519-.481-.784,32.075-.52.967-1.861a22.679,22.679,0,0,1-6.082-8.223l.943.336a23.969,23.969,0,0,0,5.57,7.411Zm-12.541-25.347.209,12.948-.738-.369-.209-12.948Zm8.453-9.894-.2.267a34.678,34.678,0,0,0-4.645,8.132l-.507-.606a34.723,34.723,0,0,1,4.933-8.4Z" transform="translate(-254.5 -254.5)"/><path d="M532.537,681.416a27.792,27.792,0,0,1,13.838-8.626,17.364,17.364,0,0,1,10.665-.033,8.609,8.609,0,0,1,5.8,5.972q1.6,5.758-4.517,9.56l.086.311q.726-.019,1.763,0a8.619,8.619,0,0,0,4.369-10.309,9.883,9.883,0,0,0-5.282-6.193l-.047-.17.381.168a9.173,9.173,0,0,1,5.732,6.281q1.713,6.153-3.991,10.356a10.374,10.374,0,0,1,5.311,2.414,9.762,9.762,0,0,1,3.006,4.849,8.614,8.614,0,0,1-1.174,7.58,12.806,12.806,0,0,1-7.425,4.789l-20.209,5.624,2.968-4.414-3.4-12.221a27.589,27.589,0,0,0-3.8,1.422l-.453-.754q2.44-.954,4.05-1.4l-.416-1.5-.706.2q-1.581.441-3.917,1.334l.488-3.055.459-.1q1.125-.222,1.69-.379a8.4,8.4,0,0,1,1.349-.285L536.2,682.222Zm8.716-2.882,3.543,12.729c.2-.076.341-.125.416-.146l.516-.113.479-.134-3.213-11.543a11.636,11.636,0,0,1,4.428-2.449,8.18,8.18,0,0,1,4.458-.207,7.619,7.619,0,0,1,3.522,2.548l-.916-.233a7.083,7.083,0,0,0-6.927-1.507,6.914,6.914,0,0,0-3.606,2.341l3.017,10.838,1.185-.33q5.391-1.5,7.531-4.027a6.416,6.416,0,0,0,1.111-6.224,7,7,0,0,0-3.645-4.627,8.511,8.511,0,0,0-6.3-.39A12.155,12.155,0,0,0,541.253,678.534Zm25.877,11.135q3.672,1.5,5,6.272a10.773,10.773,0,0,1-1.151,8.866q-2.427,3.958-8.777,5.727l-19.191,5.342-.693-.629,17.81-4.957q5.814-1.617,8.053-3.519,4.961-4.239,3.131-10.815a10.288,10.288,0,0,0-4.45-5.938Zm-21.69,3.908,4.329,15.552,1.412-.393-3.858-13.858q1.965-.7,2.839-.942a19.83,19.83,0,0,1,7.032-1.015,6.9,6.9,0,0,1,4.272,2.4l-.339.094a7.435,7.435,0,0,0-4.222-1.729,19.88,19.88,0,0,0-6.333.957l-2.3.7,3.669,13.18.9-.252,4.052-1.28q7.8-2.778,5.807-9.948-1.248-4.488-4.333-5.408t-10.282,1.082Q547.385,692.916,545.44,693.577Z" transform="translate(-254.5 -254.5)"/><path d="M564.377,668.271l12.6-6.1-1.968,5.412,13.649,28.189.211-.1.987-.38.238-.115-13.56-28,1.456-4.254.651.4-1.294,3.85,13.406,27.687q1.238-.47,2.318-.993,4.194-2.03,5.442-4.929t-.081-7.53q5.964,6,9.851,7.371L580.758,702.1l2.2-4.743-13.317-27.5Zm46.392,19.039-.039,2.948L583.2,703.587l-1-.393,27.9-13.508-.039-2.032a33.4,33.4,0,0,1-8.485-5.689l-.246-.239,1-.092.4.358a43.1,43.1,0,0,0,7.7,5.156Z" transform="translate(-254.5 -254.5)"/><path d="M603.856,645.905a13.777,13.777,0,0,1,12.383-2.3q6.612,1.872,11.9,9.187,4.994,6.909,4.553,13.48A13.918,13.918,0,0,1,626.506,677a15.289,15.289,0,0,1-10.167,2.937q-8.291-.516-14.347-8.9-5.182-7.17-4.675-13.972A14.685,14.685,0,0,1,603.856,645.905Zm1.476,2.042q-8.027,5.8,2.167,19.906,9.42,13.035,17.327,7.322a7.515,7.515,0,0,0,3.108-7.5q-.573-4.845-5.378-11.493-5.439-7.529-9.437-9.157A7.649,7.649,0,0,0,605.332,647.947Zm7.655-.11-.575.055a10.808,10.808,0,0,0-5.088,1.761q-6.246,4.514,2.626,16.789,6.486,8.977,12.467,9.1l-.042.393a11.373,11.373,0,0,1-6.584-1.984,27.283,27.283,0,0,1-6.371-6.691q-9.525-13.179-2.59-18.19Q609.989,646.788,612.987,647.837Zm-.68-6.194a14.468,14.468,0,0,1,9.416,1.725,25.111,25.111,0,0,1,8.594,7.742q5.526,7.647,5.04,15.154a15.524,15.524,0,0,1-6.8,12.071,14.912,14.912,0,0,1-9.526,2.727l-.085-.12a14.986,14.986,0,0,0,8.947-3.175,15.15,15.15,0,0,0,6.54-11.558q.579-7.25-4.465-14.231a27.212,27.212,0,0,0-8.318-7.834A15.428,15.428,0,0,0,612.5,641.9Z" transform="translate(-254.5 -254.5)"/><path d="M629.069,624.134a13.774,13.774,0,0,1,11.749-4.535q6.844.624,13.384,6.84,6.178,5.874,6.956,12.414a13.915,13.915,0,0,1-4.107,11.677,15.287,15.287,0,0,1-9.453,4.757q-8.243,1.018-15.739-6.107-6.413-6.1-7.165-12.874A14.681,14.681,0,0,1,629.069,624.134Zm1.827,1.736q-6.823,7.177,5.791,19.167,11.656,11.082,18.378,4.01a7.513,7.513,0,0,0,1.674-7.948q-1.454-4.658-7.4-10.308-6.731-6.4-10.96-7.266A7.652,7.652,0,0,0,630.9,625.87Zm7.5-1.516-.555.159a10.818,10.818,0,0,0-4.678,2.667q-5.308,5.585,5.669,16.02,8.028,7.63,13.929,6.652l.03.392a11.354,11.354,0,0,1-6.836-.738,27.24,27.24,0,0,1-7.494-5.4q-11.786-11.2-5.891-17.4Q635.259,623.874,638.4,624.354Zm-1.809-5.964a14.457,14.457,0,0,1,9.573-.036,25.1,25.1,0,0,1,9.872,6.03q6.837,6.5,7.741,13.968a15.523,15.523,0,0,1-4.465,13.116,14.9,14.9,0,0,1-8.86,4.431l-.106-.1a14.981,14.981,0,0,0,8.21-4.767,15.146,15.146,0,0,0,4.3-12.563q-.763-7.233-7.006-13.168a27.2,27.2,0,0,0-9.617-6.17,15.417,15.417,0,0,0-9.41-.518Z" transform="translate(-254.5 -254.5)"/><path d="M662.212,579.128l1.324,5.562,25.508,15.956,4.817-1.236-7.147,11.425-.746-5.271-16.716-10.456,16.733,21.422-1.492,2.384-.8-.221,1.353-2.16-17.91-22.746-3.8-2.377,19.728,25.2-1.088,1.74-24.3-5.734,13.138,8.219a16.21,16.21,0,0,0,3.944,1.983,7.631,7.631,0,0,0,3.434-.132l4.23-.464-8.126,12.99-.95.027,7.628-12.2-1.94.064-6.93,11.079.053-.693a10.749,10.749,0,0,0-.791-5.557,12.206,12.206,0,0,0-4.353-3.952l-20.541-12.848-5.131,1.351,8.033-12.84,1,5.636,25.186,5.976-1.6-2.246-22.407-5.17-.374-4.761.749-.258.243,4.473,21.01,4.918-13.7-17.486-5.149,1Zm-11.7,31.8,17.833,11.156q4.1,2.564,6.128,2.744a5.721,5.721,0,0,0,4.262-1.843l-.512-.009a6.559,6.559,0,0,1-6.391-.612l-1.838-1.149-14.679-9.183Zm14.509-31.977.255,4.065,25.037,15.662,7.622-1.246-8.251,13.189-.888-.072,7.519-12.022-6.058,1.014L664.449,583.4l-.178-4.19Z" transform="translate(-254.5 -254.5)"/><path d="M672.244,553.11a19.584,19.584,0,0,0,3.122,3.8,58.387,58.387,0,0,1,4.184,4.148l.111.2c-.228,0-.4-.009-.528-.014a25.867,25.867,0,0,0-3.9-.054,6.851,6.851,0,0,0-2.4.774,8.872,8.872,0,0,0-4.389,4.811,7.849,7.849,0,0,0-.24,5.494,5.479,5.479,0,0,0,3.344,3.511q4.594,1.763,8.919-4.516l2.895-4.193q6.17-8.961,14.21-5.876a10.445,10.445,0,0,1,6.24,6.27,12.86,12.86,0,0,1-.157,9.526,31.316,31.316,0,0,1-3.633,6.608L698,586.5a15.259,15.259,0,0,0-1.692,3.022,7.172,7.172,0,0,0-.256,3.855l-.467.072a39.377,39.377,0,0,0-7.911-8.5l.325-.439a10.719,10.719,0,0,0,8-.886,12.225,12.225,0,0,0,5.266-6.608,9.846,9.846,0,0,0,.539-6.478,5.89,5.89,0,0,0-3.738-3.913,6.965,6.965,0,0,0-6.625.909q-2.363,1.573-6.246,7.772-3,4.781-6.24,6.2a10.574,10.574,0,0,1-13.254-5.98,12.738,12.738,0,0,1,.407-9.117,31.376,31.376,0,0,1,4.014-7.026,13.419,13.419,0,0,0,1.681-2.744,6.289,6.289,0,0,0,.193-3.284Zm4.178,8.821q-4.353,1.781-5.677,5.226a5.39,5.39,0,0,0-.119,3.908,4.178,4.178,0,0,0,2.539,2.544q2.025.777,5.218-1.168l.221-.166.166.221q-3,2.991-6.063,1.816a4.711,4.711,0,0,1-2.886-2.865,6.262,6.262,0,0,1,.192-4.508,8.8,8.8,0,0,1,2.578-3.733,6.44,6.44,0,0,1,3.8-1.509Zm-2.378-10.077.315.4a42.209,42.209,0,0,0,2.876,3.3q3.287,3.456,3.658,3.881l.138.211-.525.551-.2-.2q-1.5-1.485-3.823-4.1l-2.9-3.246-.167-.22Zm5.882,30.468.877-.73q1.959-.285,4.706-4.251l2.783-3.984a32.345,32.345,0,0,1,4.222-5.237,4.856,4.856,0,0,1,3.261-1.18l.037.234a8.462,8.462,0,0,0-3.1,1.869,37.107,37.107,0,0,0-3.729,4.892,45.916,45.916,0,0,1-5.409,7.024A4.338,4.338,0,0,1,679.926,582.322Zm9.769-22.516a9.8,9.8,0,0,1,9.141-.76,12.242,12.242,0,0,1,7.295,7.443,15.251,15.251,0,0,1-.154,11.238,23.355,23.355,0,0,1-2.648,5.1l-2.746,3.968a14.468,14.468,0,0,0-1.643,3.135,7.03,7.03,0,0,0-.472,3.113l-.92.024a7.363,7.363,0,0,1,.456-3.151,17.857,17.857,0,0,1,1.931-3.559l2.627-3.824a24.308,24.308,0,0,0,2.638-5.075,14.311,14.311,0,0,0,.087-10.651,11.763,11.763,0,0,0-6.964-7.081,11.107,11.107,0,0,0-8.464.141Zm.4,22.5a10,10,0,0,0,9.053-2.74l.219.084q-3.429,4.521-9.419,3.447Z" transform="translate(-254.5 -254.5)"/><ellipse class="b" cx="658.644" cy="333.74" rx="27.778" ry="12.963" transform="translate(-305.275 -125.502) rotate(-10.773)"/><ellipse class="b" cx="670.452" cy="308.423" rx="12.963" ry="27.778" transform="translate(-321.812 72.202) rotate(-26.123)"/><ellipse class="b" cx="700.791" cy="312.525" rx="27.778" ry="12.963" transform="translate(-286.675 285.051) rotate(-41.245)"/><ellipse class="b" cx="701.901" cy="343.411" rx="12.963" ry="27.778" transform="translate(-218.572 497.661) rotate(-57.611)"/><ellipse class="b" cx="678.928" cy="352.966" rx="27.778" ry="12.963" transform="translate(-15.715 724.408) rotate(-82.356)"/><circle class="c" cx="425.693" cy="75.14" r="16.269"/><path class="d" d="M532,301.96c-17.761,15.574-45.281,36.29-84.117,54.571a423.459,423.459,0,0,1-101.557,32.58h0l-5.677-6.354h0a423.385,423.385,0,0,0,101.556-32.579c38.836-18.282,66.356-39,84.117-54.571Z" transform="translate(-254.5 -254.5)"/><ellipse class="e" cx="515.239" cy="331.692" rx="26.338" ry="5.362" transform="translate(-312.094 -140.416) rotate(-11.971)"/><ellipse class="e" cx="404.736" cy="389.111" rx="5.347" ry="26.411" transform="translate(-306.447 461.198) rotate(-79.442)"/><ellipse class="e" cx="447.319" cy="336.912" rx="22.902" ry="6.167" transform="translate(-351.005 216.054) rotate(-50.793)"/><path d="M441.4,360.34H466.71q16.125,0,22.948,5.549,8.682,6.954,8.682,19.316a24.932,24.932,0,0,1-3.326,13.065,19.017,19.017,0,0,1-9.3,8.007q-5.976,2.46-19,2.458h-6.934v34l6.878,7.726H440.437l7.837-8.218V414.073c-.451-.046-.771-.07-.959-.07a15.183,15.183,0,0,0-7.78,2.178l-.508-1.265q3.777-2.668,6.766-2.669h2.03l.451-.07v-3.442a13.634,13.634,0,0,0-1.748-.211,12.943,12.943,0,0,0-9.641,3.653l-.564-1.054q3.438-7.866,11.051-7.867h.9V368.839Zm54.069,7.516q3.438,2.108,5.526,7.41a32.72,32.72,0,0,1,2.086,12.046q0,15.243-9.473,21.915-7.159,5.057-24.469,5.057-2.875,0-4.849-.14v29.008l8.852,13.065H444.891l-1.522-1.9h26.555l-7.216-10.395V412.247q4.9.353,10.43.351,14.546,0,21.594-6.391t7.048-19.6a30.044,30.044,0,0,0-1.353-9.518A38.1,38.1,0,0,0,495.465,367.856Zm-35.689-.281v35.19h.733l1.466.07a6.035,6.035,0,0,0,.733-.07V371.438h6.2q7.215,0,10.176,1.581t5.046,6.567a11.829,11.829,0,0,0-5.215-5.023,21.682,21.682,0,0,0-8.824-1.439h-5.807v29.641q11.164,0,16.379-4.074t5.215-12.784q0-9.762-4.651-14.188t-14.97-4.425Q463.609,367.294,459.776,367.575Z" transform="translate(-254.5 -254.5)"/><path d="M529.032,533.7a46.219,46.219,0,0,1,30.109-11.027q12.122,0,19.79,6.778a22.313,22.313,0,0,1,7.668,17.525q0,14.328-13.307,19.175v.773q1.353.422,3.27,1.124A16.98,16.98,0,0,0,586.4,560.6a24.707,24.707,0,0,0,3.581-13.557,26.484,26.484,0,0,0-6.6-17.7v-.421l.62.632q7.386,7.1,7.386,18.191,0,15.313-12.743,21.354a21.837,21.837,0,0,1,8.6,8.99,27.731,27.731,0,0,1,3.073,13.135q0,10.466-6.089,16.751t-16.238,6.287H527.623l7.78-8.288V575.564a42.564,42.564,0,0,0-7.78.843l-.451-2.037a68.344,68.344,0,0,1,8.231-.632v-3.722h-1.409a70.686,70.686,0,0,0-7.949.561l2.48-6.743.9.07q2.2.211,3.326.211a12.985,12.985,0,0,1,2.649.211v-26.41ZM588.91,575q6.033,5.832,6.032,17.7,0,11.943-6.709,19.737-6.542,7.587-19.226,7.586H530.668l-.959-1.9h35.577q11.613,0,16.745-2.95,11.388-6.6,11.389-22.968a28.341,28.341,0,0,0-5.187-16.576Zm-42.23-42.354v31.678c.413-.046.7-.07.845-.07l1.016.07h.958V535.6a18.854,18.854,0,0,1,9.473-2.81q5.3,0,8.372,2.389t5.216,8.147l-1.58-1.124q-4.229-7.937-12.065-7.936a11.605,11.605,0,0,0-7.894,3.09v26.972h2.369q10.767,0,16.04-4.46T574.7,546.2q0-8.076-4.37-13.029a14.567,14.567,0,0,0-11.474-4.952A20.136,20.136,0,0,0,546.68,532.648Zm0,37.438v38.7H549.5V574.3q4-.351,5.751-.352,9.359,0,13.56,2.178t6.681,8.288h-.677a15.247,15.247,0,0,0-6.934-6.708q-4.173-1.859-12.235-1.861l-4.624.14v32.8h1.8l8.176-.35q15.9-1.405,15.9-19.247,0-11.168-5.243-15.276T552.036,569.8Q550.628,569.8,546.68,570.086Z" transform="translate(-254.5 -254.5)"/><path d="M468.962,445.424h26.951l-7.951,9.623v75.086h.452l2.029.21h.508V455.75l6.089-7.657.79,1.546-5.47,6.953v73.751a43.937,43.937,0,0,0,4.849.281q8.965,0,13.56-4.952t6.173-16.33q5.3,19.174,10.882,26.2H468.962l7.781-7.937V454.345Zm64.388,89.555-2.538,6.322H471.95l-1.409-1.9h59.651l1.635-4.425a86.378,86.378,0,0,1-9.923-21.142l-.225-.773,1.8.843.395,1.195a111.658,111.658,0,0,0,9.021,19.174Z" transform="translate(-254.5 -254.5)"/><circle class="f" cx="245.5" cy="245.5" r="245"/></svg>